<svg xmlns="http://www.w3.org/2000/svg" viewBox="0 0 75 75">
  <title>Artboard 5</title>
  <g>
    <path d="M1,22.666a1,1,0,0,0,1-1V15.833A4.838,4.838,0,0,1,6.833,11h5.834a1,1,0,1,0,0-2H6.833A6.84,6.84,0,0,0,0,15.833v5.833A1,1,0,0,0,1,22.666Z"/>
    <path d="M50.167,9H44.334a1,1,0,0,0,0,2h5.833A4.838,4.838,0,0,1,55,15.833v5.833a1,1,0,0,0,2,0V15.833A6.84,6.84,0,0,0,50.167,9Z"/>
    <path d="M12.667,64H6.833A4.838,4.838,0,0,1,2,59.167V53.334a1,1,0,0,0-2,0v5.833A6.84,6.84,0,0,0,6.833,66h5.834a1,1,0,1,0,0-2Z"/>
    <path d="M56,52.334a1,1,0,0,0-1,1v5.833A4.838,4.838,0,0,1,50.167,64H44.334a1,1,0,0,0,0,2h5.833A6.84,6.84,0,0,0,57,59.167V53.334A1,1,0,0,0,56,52.334Z"/>
    <path d="M34.71,35.486a2.081,2.081,0,0,0,2.57.6l6.561-3.249A2.079,2.079,0,1,0,42,29.108L36.966,31.6l-3.505-4.558a2.091,2.091,0,0,0-.991-.7l-6.236-2.078a2.1,2.1,0,0,0-.884-.1l-5.975.649a2.078,2.078,0,0,0-1.813,1.663l-1.754,8.834a2.077,2.077,0,0,0,1.633,2.443,2.027,2.027,0,0,0,.407.04,2.076,2.076,0,0,0,2.036-1.675l1.457-7.335,3.815-.417-5.406,17.7-7.257,8.573a2.078,2.078,0,1,0,3.17,2.688l7.536-8.9a2.033,2.033,0,0,0,.4-.737l2.617-8.566a2.049,2.049,0,0,0,.284.306l5.412,4.241-4.661,4.9a2.078,2.078,0,1,0,3.013,2.863L36.5,44.875a2.079,2.079,0,0,0-.223-3.068L30.247,37.08l1.8-5.053Z"/>
    <path d="M32.2,24.476a3.768,3.768,0,1,0-3.767-3.768A3.769,3.769,0,0,0,32.2,24.476Z"/>
  </g>
</svg>
