<svg xmlns="http://www.w3.org/2000/svg" viewBox="0 0 75 75">
  <title>battery</title>
  <g>
    <polygon points="32.5 27 25 39.457 31 39.457 29.5 48 37 35.545 31 35.545 32.5 27"/>
    <path d="M63,30.5H62V24.98a5.483,5.483,0,0,0-5.475-5.48H5.475A5.483,5.483,0,0,0,0,24.98V50.02A5.483,5.483,0,0,0,5.475,55.5h51.05A5.483,5.483,0,0,0,62,50.02V44.5h1a5.2,5.2,0,0,0,5-5.363V35.865A5.2,5.2,0,0,0,63,30.5ZM60,50.02a3.482,3.482,0,0,1-3.475,3.48H5.475A3.482,3.482,0,0,1,2,50.02V24.98A3.482,3.482,0,0,1,5.475,21.5h51.05A3.482,3.482,0,0,1,60,24.98Zm6-10.883A3.2,3.2,0,0,1,63,42.5H62v-10h1a3.2,3.2,0,0,1,3,3.365Z"/>
  </g>
</svg>
