<svg xmlns="http://www.w3.org/2000/svg" viewBox="0 0 75 75">
  <title>ear</title>
  <g>
    <path d="M9.449,40.325a1,1,0,1,0,0,2,7.948,7.948,0,0,0,1.057-15.816,7.835,7.835,0,0,1,15.626.92,1,1,0,0,0,2,0,9.842,9.842,0,1,0-19.683-.2q0,.1,0,.2a1,1,0,0,0,1,1,5.95,5.95,0,0,1,0,11.9Z"/>
    <path d="M18.5,8A18.609,18.609,0,0,0,0,26.674a1,1,0,0,0,2,0A16.607,16.607,0,0,1,18.5,10,16.607,16.607,0,0,1,35,26.674c0,8.769-4.131,14.28-9.123,20.075a33.366,33.366,0,0,0-4.583,7.843C18.682,60.177,16.427,65,8.926,65,3.814,65,2,60.287,2,56.251a1,1,0,0,0-2,0C0,62.681,3.587,67,8.926,67c8.773,0,11.522-5.877,14.179-11.561a31.85,31.85,0,0,1,4.288-7.385C31.447,43.346,37,36.9,37,26.674A18.609,18.609,0,0,0,18.5,8Z"/>
  </g>
</svg>
