<svg xmlns="http://www.w3.org/2000/svg" viewBox="0 0 75 75">
  <title>sensors</title>
  <g>
    <path d="M44,24.83a1,1,0,0,0,.707-1.707,20.331,20.331,0,0,0-28.754,0,1,1,0,0,0,1.414,1.414,18.332,18.332,0,0,1,25.926,0A1,1,0,0,0,44,24.83Z"/>
    <path d="M15.956,51.877a20.331,20.331,0,0,0,28.755,0A1,1,0,0,0,43.3,50.463a18.332,18.332,0,0,1-25.927,0,1,1,0,0,0-1.414,1.414Z"/>
    <path d="M8.933,15.934a1,1,0,0,0,1.414,1.414,28.534,28.534,0,0,1,40.306,0,1,1,0,0,0,1.414-1.414A30.533,30.533,0,0,0,8.933,15.934Z"/>
    <path d="M50.653,57.652a28.534,28.534,0,0,1-40.306,0,1,1,0,0,0-1.414,1.414,30.535,30.535,0,0,0,43.134,0,1,1,0,0,0-1.414-1.414Z"/>
    <path d="M4.2,24.1a1,1,0,0,0-1.329.48,30.5,30.5,0,0,0,0,25.85,1,1,0,0,0,.9.575.987.987,0,0,0,.424-.095,1,1,0,0,0,.481-1.33,28.5,28.5,0,0,1,0-24.15A1,1,0,0,0,4.2,24.1Z"/>
    <path d="M58.126,24.575a1,1,0,0,0-1.811.85,28.494,28.494,0,0,1,0,24.15,1,1,0,0,0,1.811.85,30.5,30.5,0,0,0,0-25.85Z"/>
    <path d="M30.5,30a1,1,0,0,0-.908.581l-6,13A1,1,0,0,0,24.947,44.9L30.5,42.118,36.053,44.9a1,1,0,0,0,1.355-1.314l-6-13A1,1,0,0,0,30.5,30Z"/>
  </g>
</svg>
