<svg xmlns="http://www.w3.org/2000/svg" viewBox="0 0 75 75">
  <title>speed</title>
  <g>
    <path d="M52.109,22a.738.738,0,0,0-.046-.068.636.636,0,0,0-.069-.046,30.446,30.446,0,0,0-43.015.025c-.014.013-.032.017-.045.03s-.018.032-.031.047A30.48,30.48,0,0,0,4.73,59.823a1,1,0,1,0,1.688-1.072A28.393,28.393,0,0,1,2.035,44.5H6.729a1,1,0,0,0,0-2h-4.7A28.387,28.387,0,0,1,9.664,24.084l3.321,3.32A1,1,0,1,0,14.4,25.99l-3.321-3.321A28.389,28.389,0,0,1,29.5,15.025v4.7a1,1,0,0,0,2,0v-4.7a28.391,28.391,0,0,1,18.416,7.639L46.6,25.982A1,1,0,1,0,48.012,27.4l3.318-3.319A28.388,28.388,0,0,1,58.975,42.5h-4.7a1,1,0,0,0,0,2h4.7A28.393,28.393,0,0,1,54.58,58.753a1,1,0,1,0,1.688,1.072A30.479,30.479,0,0,0,52.109,22Z"/>
    <path d="M43.66,30.333a1,1,0,0,0-1.414,0l-8.994,9a5.018,5.018,0,1,0,1.414,1.414l9-9A1,1,0,0,0,43.66,30.333ZM33.5,43.5a3,3,0,1,1-3-3,2.96,2.96,0,0,1,1.284.3l-1.992,1.993a1,1,0,0,0,1.415,1.414L33.2,42.214A2.977,2.977,0,0,1,33.5,43.5Z"/>
    <path d="M44,60H17a1,1,0,0,0,0,2H44a1,1,0,0,0,0-2Z"/>
  </g>
</svg>
